<?xml version="1.0" encoding="utf-8"?>
<!-- Generator: Adobe Illustrator 15.1.0, SVG Export Plug-In  -->
<!DOCTYPE svg PUBLIC "-//W3C//DTD SVG 1.1//EN" "http://www.w3.org/Graphics/SVG/1.1/DTD/svg11.dtd" [
	<!ENTITY ns_flows "http://ns.adobe.com/Flows/1.0/">
]>
<svg version="1.1"
	 xmlns="http://www.w3.org/2000/svg" xmlns:xlink="http://www.w3.org/1999/xlink" xmlns:a="http://ns.adobe.com/AdobeSVGViewerExtensions/3.0/"
	 x="0px" y="0px" width="336px" height="76px" viewBox="0 4.541 336 76" enable-background="new 0 4.541 336 76"
	 xml:space="preserve">
<defs>
</defs>
<rect display="none" fill="#222222" width="339" height="86"/>
<path fill="none" d="M65.884,61.907c0.01-0.006,0.018-0.018,0.028-0.023C65.901,61.889,65.893,61.901,65.884,61.907z"/>
<path fill="#FFFFFF" d="M70.042,17.496c7.671-1.827,6.289-9.354,4.787-9.555c-2.195-0.293-5.671,0.831-8.438,1.504
	c-3.09,0.749-5.912-6.31-14.427-4.651c-6.119,1.193-7.343,4.549-8.388,8.469c-0.009,0.049-0.021,0.094-0.026,0.14
	c-0.228,1.454-0.312,2.919-0.222,4.345c0.081,1.422,0.348,2.813,0.884,3.994c0.541,1.18,1.365,2.074,2.458,2.539
	c0.543,0.234,1.149,0.385,1.794,0.437c0.635,0.054,1.354,0.054,1.999-0.027c1.314-0.139,2.446-0.599,3.132-1.538
	c0.704-0.943,0.948-2.37,0.934-3.806c0.002-1.454-0.248-2.946-0.572-4.446c0.857,1.287,1.456,2.742,1.825,4.301
	c0.17,0.781,0.264,1.6,0.218,2.449c-0.048,0.846-0.243,1.738-0.704,2.561c-0.444,0.826-1.166,1.523-1.968,1.986
	c-0.807,0.472-1.676,0.725-2.521,0.874c-0.859,0.128-1.665,0.185-2.539,0.125c-0.866-0.065-1.766-0.243-2.609-0.622
	c-0.841-0.377-1.629-0.934-2.238-1.627c-0.087-0.1-0.166-0.204-0.247-0.307c0.064,1.611,0.002,2.746-0.512,3.035
	C30.114,34.77,24.101,44.36,24.101,60.565c0,6.517-1.098,9.385-6.955,9.385c-12.548,0-15.198,4.961-13.804,4.961
	c0,0,55.495,0,57.727,0c3.205,0,12.269,0,12.269,0s1.335-4.438-3.625-5.588c-6.366-1.477-6.762-8.453-5.995-12.066
	c0.985-4.623,6.587-11.229,5.612-18.06c-0.975-6.832-8.485-13.089-4.398-14.636c3.267-1.232,8.504-3.18,8.645-4.92
	c0.063-0.773-6.769,1.293-8.85-0.781C63.91,18.047,67.371,18.133,70.042,17.496z M60.186,52.705L40.154,66.149
	c-1.136,0.775-2.445,0.287-2.445-1.09V37.524c0-1.381,1.309-1.868,2.445-1.091l19.801,13.443
	C61.088,50.653,61.323,51.926,60.186,52.705z"/>
<path fill="#CCCCCC" stroke="#CCCCCC" stroke-width="0.5" stroke-miterlimit="10" d="M115.486,48.143
	c0,8.209-6.112,15.869-14.683,15.869c-5.473,0-10.215-3.191-12.77-7.934v23.438c0,0.73-0.547,1.277-1.275,1.277
	c-0.73,0-1.277-0.547-1.277-1.277V34.1c0-0.641,0.546-1.277,1.277-1.277c0.729,0,1.275,0.637,1.275,1.277v6.2
	c2.555-4.741,7.297-8.024,12.77-8.024C109.374,32.276,115.486,39.936,115.486,48.143z M112.93,48.143
	c0-6.839-5.014-13.314-12.127-13.314c-7.204,0-12.222,6.476-12.222,13.314c0,6.842,5.019,13.314,12.222,13.314
	C107.917,61.458,112.93,54.985,112.93,48.143z"/>
<path fill="#CCCCCC" stroke="#CCCCCC" stroke-width="0.5" stroke-miterlimit="10" d="M136.276,34.1c0,0.82-0.455,1.275-1.185,1.367
	c-7.478,1.095-10.854,7.205-10.854,14.318v12.221c0,0.728-0.546,1.276-1.274,1.276c-0.731,0-1.277-0.549-1.277-1.276V34.19
	c0-0.73,0.546-1.277,1.277-1.277c0.729,0,1.274,0.547,1.274,1.277v5.655c2.098-3.557,6.292-6.933,10.671-6.933
	C135.545,32.913,136.276,33.369,136.276,34.1z"/>
<path fill="#CCCCCC" stroke="#CCCCCC" stroke-width="0.5" stroke-miterlimit="10" d="M167.649,48.051
	c0,8.301-6.203,15.868-14.773,15.868c-8.574,0-14.684-7.567-14.684-15.868c0-8.206,6.11-15.867,14.684-15.867
	C161.446,32.184,167.649,39.845,167.649,48.051z M165.005,48.051c0-6.747-4.926-13.223-12.129-13.223
	c-7.114,0-12.131,6.476-12.131,13.223c0,6.842,5.018,13.315,12.131,13.315C160.079,61.367,165.005,54.893,165.005,48.051z"/>
<path fill="#CCCCCC" stroke="#CCCCCC" stroke-width="0.5" stroke-miterlimit="10" d="M192.542,34.1c0,0.182-0.09,0.455-0.18,0.729
	l-9.121,13.223l9.121,13.315c0.09,0.183,0.18,0.456,0.18,0.729c0,0.729-0.545,1.277-1.275,1.277c-0.365,0-0.822-0.184-1.004-0.548
	l-8.57-12.493l-8.484,12.493c-0.271,0.364-0.639,0.548-1.092,0.548c-0.73,0-1.277-0.548-1.277-1.277c0-0.273,0.09-0.547,0.182-0.729
	l9.119-13.315l-9.119-13.223c-0.092-0.273-0.182-0.547-0.182-0.729c0-0.731,0.547-1.277,1.277-1.277c0.453,0,0.82,0.184,1.092,0.546
	l8.484,12.405l8.57-12.405c0.182-0.362,0.639-0.546,1.004-0.546C191.997,32.823,192.542,33.369,192.542,34.1z"/>
<path fill="#FFFFFF" stroke="#FFFFFF" stroke-width="0.5" stroke-miterlimit="10" d="M246.075,45.774v16.322
	c0,0.729-0.637,1.277-1.275,1.277c-0.732,0-1.277-0.548-1.277-1.277V45.774c0-5.474-3.1-10.854-9.211-10.854
	c-7.66,0-10.578,8.207-10.578,14.592v12.584c0,0.729-0.639,1.277-1.279,1.277c-0.729,0-1.277-0.548-1.277-1.277V45.774
	c0-5.474-3.1-10.854-9.211-10.854c-7.748,0-10.941,6.108-10.668,14.228c0,0.182,0.09,0.546,0,0.638v12.311
	c0,0.729-0.549,1.277-1.277,1.277c-0.727,0-1.275-0.548-1.275-1.277V34.19c0-0.73,0.549-1.277,1.275-1.277
	c0.729,0,1.277,0.547,1.277,1.277v4.651c2.189-3.921,6.109-6.476,10.668-6.476c5.201,0,9.211,3.283,10.854,8.117
	c2.098-4.742,6.201-8.117,11.492-8.117C241.79,32.366,246.075,38.841,246.075,45.774z"/>
<path fill="#FFFFFF" stroke="#FFFFFF" stroke-width="0.5" stroke-miterlimit="10" d="M281.823,34.1v27.814
	c0,0.73-0.549,1.275-1.277,1.275c-0.73,0-1.275-0.545-1.275-1.275v-5.836c-2.555,4.65-7.295,7.934-12.768,7.934
	c-8.572,0-14.686-7.66-14.686-15.869c0-8.207,6.113-15.867,14.686-15.867c5.473,0,10.213,3.283,12.768,7.934V34.1
	c0-0.641,0.545-1.277,1.275-1.277C281.274,32.823,281.823,33.459,281.823,34.1z M278.632,48.143c0-6.839-4.926-13.314-12.129-13.314
	c-7.113,0-12.131,6.476-12.131,13.314c0,6.842,5.018,13.314,12.131,13.314C273.706,61.458,278.632,54.985,278.632,48.143z"/>
<path fill="#FFFFFF" stroke="#FFFFFF" stroke-width="0.5" stroke-miterlimit="10" d="M303.983,32.913
	c0.729,0,1.277,0.64,1.277,1.277c0,0.73-0.549,1.277-1.277,1.277h-6.84v26.811c0,0.639-0.549,1.279-1.277,1.279
	c-0.727,0-1.275-0.641-1.275-1.279V35.467h-6.568c-0.73,0-1.275-0.547-1.275-1.277c0-0.638,0.545-1.277,1.275-1.277h6.568v-9.85
	c0-0.729,0.549-1.275,1.275-1.275c0.729,0,1.277,0.546,1.277,1.275v9.85H303.983z"/>
<path fill="#FFFFFF" stroke="#FFFFFF" stroke-width="0.5" stroke-miterlimit="10" d="M335.993,48.143
	c0,0.729-0.635,1.277-1.367,1.277h-25.445c0.641,6.292,5.383,12.037,12.037,12.037c4.564,0,7.936-1.732,10.49-5.379
	c0.273-0.366,0.637-0.638,1.094-0.638c0.729,0,1.277,0.546,1.277,1.275c0,0.273-0.092,0.456-0.184,0.638
	c-2.553,4.469-7.658,6.658-12.678,6.658c-8.57,0-14.682-7.66-14.682-15.869c0-8.207,6.111-15.867,14.682-15.867
	C329.792,32.276,335.993,39.936,335.993,48.143z M333.259,46.866c-0.547-6.291-5.383-12.037-12.041-12.037
	c-6.654,0-11.396,5.746-12.037,12.037H333.259z"/>
</svg>
