<?xml version="1.0" encoding="utf-8"?>
<!-- Generator: Adobe Illustrator 15.1.0, SVG Export Plug-In  -->
<!DOCTYPE svg PUBLIC "-//W3C//DTD SVG 1.1//EN" "http://www.w3.org/Graphics/SVG/1.1/DTD/svg11.dtd" [
	<!ENTITY ns_flows "http://ns.adobe.com/Flows/1.0/">
]>
<svg version="1.1"
	 xmlns="http://www.w3.org/2000/svg" xmlns:xlink="http://www.w3.org/1999/xlink" xmlns:a="http://ns.adobe.com/AdobeSVGViewerExtensions/3.0/"
	 x="0px" y="0px" width="42px" height="50px" viewBox="0 0 42 50" enable-background="new 0 0 42 50" xml:space="preserve">
<defs>
</defs>
<path fill="#FFFFFF" d="M41.519,11.29l-3.786-2.186c0.009,0.005-0.161,0.324-0.235,0.452c-1.774,3.074-5.736,4.162-8.811,2.387
	s-4.105-5.766-2.33-8.84c0.073-0.128,0.256-0.419,0.265-0.414l-3.895-2.249c-1.292-0.746-3.707-0.566-4.453,0.725L8.102,18.783
	l-2.035,3.524L1.82,29.664c-3.729,6.459-1.55,14.766,4.91,18.495c6.459,3.729,14.743,1.464,18.472-4.995l4.247-7.356l2.035-3.524
	l10.172-17.618C42.403,13.373,42.811,12.036,41.519,11.29z M6.881,32.119c-1.099-0.635-1.477-2.039-0.841-3.141
	c0.634-1.098,2.04-1.475,3.139-0.84c1.1,0.635,1.476,2.041,0.842,3.139C9.386,32.378,7.981,32.753,6.881,32.119z M11.044,24.908
	c-1.099-0.635-1.476-2.041-0.841-3.14c0.635-1.099,2.04-1.476,3.14-0.841s1.476,2.04,0.841,3.139
	C13.55,25.166,12.144,25.542,11.044,24.908z M15.208,17.697c-1.1-0.635-1.476-2.04-0.841-3.14s2.04-1.476,3.14-0.841
	s1.476,2.04,0.841,3.14S16.308,18.332,15.208,17.697z M14.093,36.282c-1.099-0.635-1.477-2.038-0.841-3.14
	c0.634-1.098,2.04-1.475,3.139-0.84s1.476,2.04,0.842,3.138C16.597,36.542,15.192,36.917,14.093,36.282z M18.256,29.071
	c-1.099-0.634-1.476-2.04-0.841-3.139c0.634-1.1,2.04-1.476,3.139-0.841c1.1,0.634,1.477,2.041,0.842,3.139
	C20.761,29.33,19.355,29.706,18.256,29.071z M22.419,21.86c-1.099-0.634-1.476-2.04-0.841-3.139s2.04-1.476,3.139-0.841
	c1.1,0.635,1.477,2.04,0.842,3.14S23.519,22.495,22.419,21.86z M21.303,40.445c-1.098-0.634-1.476-2.038-0.84-3.14
	c0.634-1.098,2.04-1.474,3.138-0.84c1.101,0.635,1.477,2.04,0.842,3.138C23.808,40.705,22.404,41.081,21.303,40.445z M25.466,33.234
	c-1.098-0.634-1.475-2.039-0.84-3.139c0.635-1.099,2.04-1.476,3.138-0.842c1.101,0.636,1.477,2.041,0.842,3.14
	C27.972,33.493,26.567,33.87,25.466,33.234z M29.629,26.023c-1.098-0.634-1.475-2.039-0.84-3.139s2.041-1.476,3.139-0.842
	c1.101,0.635,1.477,2.04,0.842,3.14S30.73,26.659,29.629,26.023z"/>
<circle fill="#FFFFFF" cx="31.887" cy="6.398" r="4.438"/>
</svg>
