<?xml version="1.0" encoding="utf-8"?>
<!-- Generator: Adobe Illustrator 15.1.0, SVG Export Plug-In  -->
<!DOCTYPE svg PUBLIC "-//W3C//DTD SVG 1.1//EN" "http://www.w3.org/Graphics/SVG/1.1/DTD/svg11.dtd" [
	<!ENTITY ns_flows "http://ns.adobe.com/Flows/1.0/">
]>
<svg version="1.1"
	 xmlns="http://www.w3.org/2000/svg" xmlns:xlink="http://www.w3.org/1999/xlink" xmlns:a="http://ns.adobe.com/AdobeSVGViewerExtensions/3.0/"
	 x="0px" y="0px" width="354px" height="400px" viewBox="108.153 0 354 400" enable-background="new 108.153 0 354 400"
	 xml:space="preserve">
<defs>
</defs>
<rect display="none" fill="#DDDBDB" width="600" height="400"/>
<rect x="353" y="154" fill="#F7F7F7" width="34" height="245"/>
<path fill="#CCCCCC" d="M200.276,161.339c0,0-118.152,13.676-86.843,52.024c31.46,38.529,171.332-1.491,180.788-35.878
	L200.276,161.339z"/>
<rect x="353" y="154" fill="#CCCCCC" width="16" height="245"/>
<path fill="#F7F7F7" d="M245.362,42.849l174.025-13.225c52.762,0,41.241,74.029,41.241,115.909l-166.755,32.744L245.362,42.849z"/>
<path fill="#A5A5A5" d="M293.873,178.276c0,0,17.38-135.428-46.086-135.428c-47.167,0-49.68,80.862-47.86,119.281L293.873,178.276z"
	/>
<path fill="none" d="M311.457,111.271c0,2.841,2.313,5.154,5.154,5.154s5.154-2.313,5.154-5.154c0-2.842-2.313-5.154-5.154-5.154
	S311.457,108.43,311.457,111.271z"/>
<path fill="#A5A5A5" d="M314,17v83.56c-6,1.423-8.244,5.686-8.244,10.712c0,6.186,4.85,11.218,11.036,11.218
	c6.186,0,11.458-5.032,11.458-11.218c0-5.243-4.25-9.645-8.25-10.869V17H314z M321.766,111.271c0,2.841-2.313,5.154-5.154,5.154
	s-5.154-2.313-5.154-5.154c0-2.842,2.313-5.154,5.154-5.154S321.766,108.43,321.766,111.271z"/>
<polygon fill="#BE3A34" points="342,17 342,0 314,0 314,10.915 314,17 319.34,17 "/>
<path fill="none" d="M228.864,146.305c0.005-0.003,0.009-0.011,0.015-0.016C228.872,146.293,228.868,146.301,228.864,146.305z"/>
<polygon fill="#AF3333" points="283.228,163.812 151.647,173.35 146.156,97.589 214.633,129.905 277.737,88.049 "/>
<polygon fill="#BE3A34" points="151.534,173.362 214.854,130.922 283.634,163.784 "/>
<polygon fill="#932A2A" points="212.327,96.042 146.024,97.364 215.154,135.08 278.124,87.788 "/>
<polygon fill="#BE3A34" points="212.076,92.577 146.024,97.364 214.802,130.229 278.124,87.788 "/>
<path fill="#FFFFFF" d="M226.919,113.039c4.514-1.655,3.14-6.114,2.215-6.128c-1.351-0.021-3.375,0.909-5.002,1.514
	c-1.818,0.674-4.03-3.399-9.068-1.786c-3.62,1.16-4.122,3.279-4.475,5.727c-0.002,0.031-0.006,0.058-0.006,0.086
	c-0.034,0.897,0.021,1.79,0.176,2.647c0.15,0.855,0.412,1.678,0.82,2.355c0.412,0.676,0.975,1.159,1.67,1.361
	c0.346,0.104,0.723,0.152,1.118,0.137c0.388-0.013,0.824-0.064,1.208-0.16c0.786-0.177,1.439-0.536,1.788-1.154
	c0.359-0.621,0.404-1.503,0.293-2.372c-0.103-0.881-0.36-1.766-0.664-2.651c0.611,0.718,1.078,1.556,1.412,2.473
	c0.159,0.461,0.274,0.95,0.307,1.468c0.031,0.515-0.023,1.069-0.244,1.6c-0.209,0.533-0.597,1.006-1.049,1.344
	c-0.456,0.342-0.964,0.559-1.464,0.709c-0.511,0.139-0.995,0.231-1.529,0.257c-0.528,0.022-1.086-0.021-1.624-0.19
	c-0.536-0.168-1.053-0.449-1.471-0.827c-0.059-0.053-0.115-0.111-0.171-0.167c0.154,0.971,0.198,1.662-0.094,1.874
	c-7.091,5.192-10.047,11.429-8.89,21.243c0.466,3.945,0.005,5.76-3.542,6.178c-7.599,0.896-8.849,4.09-8.005,3.99
	c0,0,33.605-3.962,34.957-4.122c1.94-0.229,7.43-0.876,7.43-0.876s0.491-2.783-2.594-3.126c-3.96-0.439-4.698-4.635-4.492-6.878
	c0.267-2.87,3.187-7.27,2.109-11.337c-1.079-4.067-6.073-7.32-3.708-8.548c1.89-0.979,4.923-2.534,4.884-3.597
	c-0.019-0.472-4.007,1.267-5.415,0.159C223.245,113.811,225.347,113.616,226.919,113.039z M216.4,142.455
	c-8.224-3.44-9.578-11.949-9.578-11.949l7.84-2.779l8.272,0.878C222.935,128.605,223.597,137.196,216.4,142.455z"/>
<path fill="#BE3A34" d="M216.414,142.444c-8.224-3.44-9.578-11.949-9.578-11.949l7.84-2.779l8.272,0.878
	C222.949,128.594,223.611,137.185,216.414,142.444z"/>
</svg>
