<?xml version="1.0" encoding="utf-8"?>
<!-- Generator: Adobe Illustrator 15.1.0, SVG Export Plug-In  -->
<!DOCTYPE svg PUBLIC "-//W3C//DTD SVG 1.1//EN" "http://www.w3.org/Graphics/SVG/1.1/DTD/svg11.dtd" [
	<!ENTITY ns_flows "http://ns.adobe.com/Flows/1.0/">
]>
<svg version="1.1"
	 xmlns="http://www.w3.org/2000/svg" xmlns:xlink="http://www.w3.org/1999/xlink" xmlns:a="http://ns.adobe.com/AdobeSVGViewerExtensions/3.0/"
	 x="0px" y="0px" width="30px" height="24px" viewBox="0 -0.328 30 24" enable-background="new 0 -0.328 30 24"
	 xml:space="preserve">
<defs>
</defs>
<path fill="#FFFFFF" d="M7.579,22.538l-5.59-7.703c-0.205-0.282-0.563-0.325-0.774-0.111c0,0-2.743,2.82,0.013,6.621
	c2.757,3.8,6.189,2.001,6.189,2.001C7.682,23.205,7.784,22.82,7.579,22.538z"/>
<path fill="#FFFFFF" d="M8.509,20.414l0.389-0.283l1.759-1.276l12.351-8.962c0.378-0.275,0.47-1.306,0.147-1.749
	c-0.321-0.444-1.252-0.568-1.63-0.293c0.378-0.275,0.634-1.081,0.311-1.524c-0.321-0.443-1.205-0.504-1.583-0.229
	c0.378-0.274,0.593-1.136,0.271-1.579c-0.321-0.443-1.249-0.565-1.628-0.29l-12.35,8.961l-1.76,1.277l-0.39,0.283
	C3.588,15.335,7.699,21.001,8.509,20.414z"/>
<path fill="#FFFFFF" d="M3.116,13.824c0.197,0.273,0.48,0.27,0.712,0.102c0,0,10.082-7.315,14.726-10.687
	c0.358-0.261,5.094-1.123,5.332-0.794c0.561,0.771,1.672,2.303,2.232,3.076c0.276,0.38-1.88,4.713-2.278,5.002
	C19.196,13.894,9.114,21.209,9.114,21.209c-0.231,0.169-0.321,0.438-0.125,0.709c0.197,0.27,0.481,0.269,0.712,0.101
	c0,0,10.166-7.378,14.692-10.661c0.865-0.628,5.668-10.336,5.668-10.336c0.096-0.188,0.189-0.568,0.011-0.813
	c-0.244-0.338-0.721-0.165-0.721-0.165S18.876,1.77,17.932,2.455C13.347,5.782,3.241,13.117,3.241,13.117
	C3.009,13.284,2.919,13.552,3.116,13.824z"/>
</svg>
